<?xml version="1.0" standalone="no"?>
<!DOCTYPE svg PUBLIC "-//W3C//DTD SVG 1.1//EN" "http://www.w3.org/Graphics/SVG/1.1/DTD/svg11.dtd" >
<svg xmlns="http://www.w3.org/2000/svg">
<metadata></metadata>
<defs>
<font id="snippetregular" horiz-adv-x="1064" >
<font-face units-per-em="2048" ascent="1638" descent="-410" />
<missing-glyph horiz-adv-x="614" />
<glyph horiz-adv-x="2048" />
<glyph horiz-adv-x="2048" />
<glyph unicode="&#xd;" horiz-adv-x="2048" />
<glyph unicode=" "  horiz-adv-x="614" />
<glyph unicode="&#x09;" horiz-adv-x="614" />
<glyph unicode="&#xa0;" horiz-adv-x="614" />
<glyph unicode="!" horiz-adv-x="552" d="M246 489q0 79 30 307t60 416l29 189h118q-123 -734 -123 -912q0 -27 5 -54.5t11 -41.5l5 -14l-115 -25q-20 61 -20 135zM260 92q0 47 34.5 82t80.5 35q49 0 83 -34.5t34 -82.5t-34 -81.5t-83 -33.5q-46 0 -80.5 34t-34.5 81z" />
<glyph unicode="&#x22;" horiz-adv-x="577" d="M102 1401h148l-21 -393h-106zM328 1401h147l-20 -393h-107z" />
<glyph unicode="#" horiz-adv-x="950" d="M82 377v110h158l41 220h-148v110h172l74 367h119l-72 -367h190l72 367h119l-72 -367h133v-110h-157l-41 -220h147v-110h-170l-76 -377h-118l73 377h-190l-74 -377h-119l74 377h-135zM360 487h189l41 220h-189z" />
<glyph unicode="$" horiz-adv-x="1140" d="M82 131l68 98q183 -115 346 -133v563q-60 19 -104 38.5t-91.5 51.5t-77.5 70.5t-49.5 96t-19.5 128.5q0 121 93.5 209t248.5 103v180h118v-180q110 -9 214.5 -49t185.5 -99l-68 -98q-180 111 -332 131v-496q53 -17 84.5 -27.5t80 -31t77.5 -40t63.5 -50t53.5 -65t32 -82 t13 -103.5q0 -88 -33 -156t-90.5 -110.5t-128 -66t-152.5 -29.5v-127h-118v125q-116 7 -224.5 47.5t-189.5 101.5zM281 1044q0 -68 30 -120t74.5 -82t110.5 -56v459q-100 -10 -157.5 -66t-57.5 -135zM614 94q125 10 201 70.5t76 181.5q0 48 -15.5 87t-39 66.5t-62 51 t-74.5 38.5t-86 32v-527z" />
<glyph unicode="%" horiz-adv-x="1536" d="M205 1053q0 133 67.5 219t178.5 86q109 0 177 -87t68 -218t-68 -217t-177 -86q-111 0 -178.5 86t-67.5 217zM315 1053q0 -98 37.5 -160t98.5 -62t98 62t37 160q0 99 -37 161t-98 62t-98.5 -62t-37.5 -161zM565 0l449 1337h119l-447 -1337h-121zM1004 283q0 133 67 219 t178 86q109 0 177.5 -87t68.5 -218t-68.5 -217t-177.5 -86q-111 0 -178 86t-67 217zM1114 283q0 -98 37 -160t98 -62t98 62t37 160q0 99 -37 161t-98 62t-98 -62t-37 -161z" />
<glyph unicode="&#x26;" horiz-adv-x="1241" d="M123 340q0 117 58.5 222t168.5 159q-104 123 -104 262q0 137 93 226t269 89q50 0 234 -16v-106q-212 16 -248 16q-114 0 -164.5 -57.5t-50.5 -151.5q0 -31 7.5 -61t25 -59.5t33 -51.5t46 -53t47.5 -47t54 -49t51 -46l309 -290q82 143 82 323v82h109v-86q0 -222 -109 -393 l187 -174l-74 -84l-182 168q-171 -182 -443 -182q-172 0 -285.5 98.5t-113.5 261.5zM240 348q0 -119 82 -190.5t200 -71.5q226 0 363 147l-305 283l-150 127q-93 -42 -141.5 -123t-48.5 -172z" />
<glyph unicode="'" horiz-adv-x="352" d="M102 1401h148l-21 -393h-106z" />
<glyph unicode="(" horiz-adv-x="784" d="M102 602q0 290 135 540t394 394l51 -88q-130 -75 -234 -210.5t-162.5 -302.5t-58.5 -333q0 -251 129 -490.5t326 -353.5l-51 -88q-174 97 -295 247.5t-177.5 323.5t-56.5 361z" />
<glyph unicode=")" horiz-adv-x="845" d="M164 -242q197 114 325.5 353.5t128.5 490.5q0 253 -128.5 492.5t-325.5 353.5l51 88q259 -144 393.5 -394t134.5 -540q0 -188 -56 -360.5t-177 -323.5t-295 -248z" />
<glyph unicode="*" horiz-adv-x="849" d="M123 1151l39 117l215 -84l-12 237h122l-14 -239l219 86l35 -117l-213 -59l137 -166l-100 -70l-125 193l-127 -197l-98 74l139 168z" />
<glyph unicode="+" horiz-adv-x="966" d="M102 549v104h324v328h115v-328h323v-104h-323v-330h-115v330h-324z" />
<glyph unicode="," horiz-adv-x="509" d="M123 -260q82 88 82 244v122q0 28 19 48t46 20q29 0 47.5 -20t18.5 -48v-122q0 -92 -35.5 -176t-107.5 -136z" />
<glyph unicode="-" horiz-adv-x="1017" d="M205 567v117h608v-117h-608z" />
<glyph unicode="." horiz-adv-x="641" d="M205 92q0 47 34 82t80 35q49 0 83 -34.5t34 -82.5t-34 -81.5t-83 -33.5q-46 0 -80 34t-34 81z" />
<glyph unicode="/" horiz-adv-x="802" d="M102 -143l449 1679h129l-447 -1679h-131z" />
<glyph unicode="0" horiz-adv-x="1396" d="M143 668q0 196 68 352.5t195 247t292 90.5t292 -91t195 -247.5t68 -351.5t-68 -351t-195 -246.5t-292 -90.5q-164 0 -291.5 91t-195.5 247t-68 350zM272 668q0 -255 118.5 -415.5t309.5 -160.5q190 0 308 160t118 416t-118 416.5t-308 160.5q-192 0 -310 -160t-118 -417z " />
<glyph unicode="1" horiz-adv-x="794" d="M20 1067l25 88q30 -6 59 -6q91 0 193 57q55 31 256 164h16v-1370h-125v1174q-57 -47 -92 -66q-118 -66 -221 -66q-53 0 -111 25z" />
<glyph unicode="2" horiz-adv-x="1005" d="M51 0v27q0 77 24.5 148t65.5 127.5t94 109.5t111.5 99t117.5 90.5t112 89.5t94 91t65.5 100t24.5 111q0 124 -70 191t-201 67q-158 0 -370 -16v106q195 17 356 17q208 0 305 -99t97 -272q0 -84 -34 -159.5t-89.5 -134t-123.5 -113t-139.5 -107t-133.5 -104.5t-110 -117 t-65 -135h762v-117h-893z" />
<glyph unicode="3" horiz-adv-x="1021" d="M72 2v111q162 -21 344 -21q178 0 270 68t92 225q0 105 -47.5 185.5t-109.5 134.5q-122 -46 -297 -46h-39v113h43q66 0 115 4t102.5 19t87.5 40t56 70.5t22 108.5q0 237 -271 237q-138 0 -350 -16v106q196 17 336 17q211 0 306 -90t95 -260q0 -163 -106 -246 q178 -150 178 -385q0 -198 -124.5 -297.5t-352.5 -99.5q-69 0 -156.5 5.5t-140.5 10.5z" />
<glyph unicode="4" horiz-adv-x="1200" d="M143 485l123 852h125l-106 -735h616v735h125v-1337h-125v485h-758z" />
<glyph unicode="5" horiz-adv-x="1052" d="M31 1329l67 70q80 -74 244 -74q114 0 239.5 3t194.5 6l68 3v-116q-245 -9 -502 -9h-57v-393q80 21 184 21q228 0 354.5 -103.5t126.5 -314.5q0 -196 -124.5 -319t-352.5 -123q-69 0 -156.5 5.5t-140.5 10.5l-53 6v113q162 -21 344 -21q180 0 271 89t91 247 q0 82 -27.5 140.5t-81 91.5t-122.5 48t-160 15q-65 0 -132 -10.5t-102 -20.5l-34 -10l-10 8v543q-84 30 -129 94z" />
<glyph unicode="6" horiz-adv-x="1206" d="M143 668q0 158 26.5 277.5t73.5 197.5t118.5 126.5t154.5 68.5t189 20q57 0 253 -17v-106q-212 16 -268 16q-111 0 -191.5 -37.5t-128 -109.5t-70.5 -163.5t-28 -211.5q174 72 355 72q225 0 330.5 -104t105.5 -287q0 -200 -108 -315t-328 -115q-103 0 -184.5 34.5 t-137 95.5t-92.5 148t-53.5 188.5t-16.5 221.5zM272 618q9 -240 102 -383t255 -143q86 0 147.5 23.5t96 68t50 101t15.5 129.5q0 274 -309 274q-161 0 -357 -70z" />
<glyph unicode="7" horiz-adv-x="946" d="M41 1329l68 70q77 -72 243 -72q58 0 244 5t278 5v-16l-520 -1321h-131l490 1221q-233 -7 -361 -7q-105 0 -183 23t-128 92z" />
<glyph unicode="8" horiz-adv-x="1181" d="M133 373q0 57 16 109.5t36.5 88t59 76.5t61.5 60.5t67 54.5q-166 94 -166 264q0 143 105 240.5t278 97.5t278 -99t105 -239q0 -162 -189 -287q265 -119 265 -366q0 -175 -118.5 -290.5t-338.5 -115.5t-339.5 115.5t-119.5 290.5zM260 377q0 -133 87 -216t245 -83 t244 82.5t86 216.5q0 44 -12.5 81.5t-31.5 65t-51 52.5t-61.5 41.5t-74.5 33t-77.5 26.5t-81.5 23l-45 13q-101 -84 -137 -126q-90 -101 -90 -210zM334 1024q0 -35 11 -64t33.5 -51t45.5 -38t59.5 -29.5t62 -22t66.5 -19.5q7 -2 11 -3l21 -7t28 -8q83 58 128.5 113t45.5 129 q0 98 -70.5 162.5t-185.5 64.5q-116 0 -186 -63.5t-70 -163.5z" />
<glyph unicode="9" horiz-adv-x="1206" d="M143 928q0 200 108.5 315t328.5 115q128 0 222.5 -52t150.5 -147t83 -216.5t27 -272.5q0 -197 -39 -333.5t-115.5 -213.5t-175 -110t-231.5 -33q-70 0 -254 16v106q212 -16 268 -16q111 0 191 37.5t127.5 109t70.5 163.5t27 212q-166 -71 -352 -71q-225 0 -331 104 t-106 287zM268 924q0 -275 310 -275q178 0 354 70q-8 239 -100.5 382.5t-253.5 143.5q-167 0 -238.5 -85t-71.5 -236z" />
<glyph unicode=":" horiz-adv-x="641" d="M246 92q0 47 34 82t80 35q49 0 83 -34.5t34 -82.5t-34 -81.5t-83 -33.5q-46 0 -80 34t-34 81zM246 905q0 47 34 82t80 35q49 0 83 -34.5t34 -82.5q0 -47 -34 -80.5t-83 -33.5q-46 0 -80 33.5t-34 80.5z" />
<glyph unicode=";" horiz-adv-x="641" d="M211 -260q82 88 82 244v122q0 28 19 48t46 20q29 0 47.5 -20t18.5 -48v-122q0 -92 -35.5 -176t-107.5 -136zM246 905q0 47 34 82t80 35q49 0 83 -34.5t34 -82.5q0 -47 -34 -80.5t-83 -33.5q-46 0 -80 33.5t-34 80.5z" />
<glyph unicode="&#x3c;" horiz-adv-x="800" d="M61 543l545 379l66 -97l-402 -278l406 -283l-70 -100z" />
<glyph unicode="=" horiz-adv-x="966" d="M123 383v106h721v-106h-721zM123 711v106h721v-106h-721z" />
<glyph unicode="&#x3e;" horiz-adv-x="800" d="M123 821l70 101l544 -379l-544 -379l-66 96l401 279z" />
<glyph unicode="?" horiz-adv-x="880" d="M102 1300v107q184 16 357 16q208 0 304.5 -98.5t96.5 -271.5q0 -71 -24 -129t-63 -97t-85.5 -72.5t-93 -61.5t-85.5 -56.5t-63 -66t-24 -81.5q0 -27 5 -54.5t10 -41.5l5 -14l-120 -25q-21 61 -21 135q0 65 24.5 116.5t63.5 86t86 64.5t94 59t86 61t63.5 78.5t24.5 104.5 q0 124 -69.5 191t-200.5 67q-146 0 -371 -17zM330 92q0 47 34 82t80 35q49 0 83 -34.5t34 -82.5t-34 -81.5t-83 -33.5q-46 0 -80 34t-34 81z" />
<glyph unicode="@" horiz-adv-x="1554" d="M184 477q0 188 73 334t212.5 229.5t325.5 83.5q272 0 439 -166.5t167 -433.5q0 -161 -84 -252.5t-197 -91.5q-89 0 -142 43t-67 125q-18 -58 -63 -92.5t-115 -34.5q-76 0 -124 46t-48 130q0 60 38 100t91.5 55t118.5 15h82v49q0 54 -28.5 84.5t-82.5 30.5q-60 0 -149 -49 l-45 74q104 63 194 63q205 0 205 -192v-189q0 -88 40.5 -127t94.5 -39q64 0 118 65.5t54 190.5q0 228 -138 364t-359 136q-226 0 -363 -152t-137 -393q0 -229 138.5 -367.5t361.5 -138.5q81 0 170.5 16t125.5 27t103 33l29 -92q-232 -82 -428 -82q-275 0 -443 164.5 t-168 433.5zM657 397q0 -40 28 -66t71 -26q47 0 85.5 54.5t47.5 129.5h-80q-64 0 -108 -21.5t-44 -70.5z" />
<glyph unicode="A" horiz-adv-x="1300" d="M20 0l609 1440h39l612 -1440h-131l-199 465h-604l-194 -465h-132zM395 582h506l-203 477q-28 63 -51 160q-19 -88 -49 -160z" />
<glyph unicode="B" horiz-adv-x="1265" d="M20 1413l68 70q88 -82 244 -82q58 0 144.5 10t178.5 10q183 0 298.5 -102t115.5 -266q0 -108 -52 -184t-145 -117q119 -46 190 -146.5t71 -224.5q0 -184 -128.5 -294t-349.5 -110q-116 0 -218.5 5.5t-147.5 11.5l-45 6v1292q-152 21 -224 121zM369 100q133 -10 280 -10 q171 0 267 78.5t96 220.5q0 125 -96.5 208.5t-247.5 86.5h-9h-290v-584zM369 797h284q131 0 212 68t81 188t-80.5 188t-216.5 68q-98 0 -174 -10t-106 -11v-491z" />
<glyph unicode="C" horiz-adv-x="1318" d="M123 700q0 203 84 367t238 259t350 95q215 0 328.5 -76.5t113.5 -207.5q0 -122 -108.5 -193.5t-333.5 -71.5h-529q-18 -80 -18 -172h-125zM123 700h125q0 -277 120.5 -442.5t344.5 -165.5q114 0 243 51.5t218 108.5l53 -92q-83 -66 -223 -123t-291 -57q-148 0 -262.5 55 t-185.5 153.5t-106.5 227.5t-35.5 284zM299 979h496q175 0 244 39t69 119q0 84 -80 128t-233 44q-170 0 -300.5 -88t-195.5 -242z" />
<glyph unicode="D" horiz-adv-x="1574" d="M10 1413l68 70q88 -82 244 -82q58 0 192.5 10t226.5 10q160 0 294.5 -55.5t225 -152t141 -229t50.5 -284.5q0 -205 -86 -368t-249 -257.5t-376 -94.5q-186 0 -313 5t-161 10l-34 5v1292q-151 21 -223 121zM358 102q140 -10 383 -10q268 0 428 168t160 440 q0 271 -160.5 440t-427.5 169q-83 0 -209.5 -10t-173.5 -11v-1186z" />
<glyph unicode="E" horiz-adv-x="1214" d="M195 0v1401h917v-117h-793v-485h650v-117h-650v-565h834v-117h-958z" />
<glyph unicode="F" horiz-adv-x="1132" d="M195 0v1401h917v-117h-793v-502h650v-116h-650v-666h-124z" />
<glyph unicode="G" horiz-adv-x="1411" d="M123 700q0 203 85 367t243.5 259t363.5 95q217 0 340 -77.5t123 -206.5q0 -122 -108.5 -193.5t-333.5 -71.5h-570q-18 -80 -18 -172q0 -182 53 -317t163.5 -213t268.5 -78q74 0 135 17t100.5 43.5t69 63.5t44.5 71.5t24.5 73.5t11.5 63.5t2 46.5v170h121v-1153h-121v666 q-123 -174 -387 -174q-156 0 -274.5 55t-191 153.5t-108.5 227t-36 284.5zM301 979h535q175 0 244 39t69 119q0 83 -89.5 127.5t-244.5 44.5q-181 0 -315 -87.5t-199 -242.5z" />
<glyph unicode="H" horiz-adv-x="1394" d="M195 0v1401h124v-615h756v615h125v-1401h-125v670h-756v-670h-124z" />
<glyph unicode="I" horiz-adv-x="514" d="M195 0v1401h124v-1401h-124z" />
<glyph unicode="J" horiz-adv-x="919" d="M72 1284v117h653v-1022q0 -420 -264 -420q-136 0 -220.5 105t-84.5 315q0 233 116 360t340 146v399h-540zM279 379q0 -150 48 -230.5t134 -80.5q79 0 115 67.5t36 243.5v399q-171 -17 -252 -113t-81 -286z" />
<glyph unicode="K" horiz-adv-x="1249" d="M195 0v1401h124v-631h328l-4 -14h2l2 14h6l398 647l106 -65l-373 -600q172 -51 244 -248l180 -504h-131l-143 426q-17 53 -31 84.5t-37.5 63.5t-53.5 48.5t-76 26.5t-109 10h-308v-659h-124z" />
<glyph unicode="L" horiz-adv-x="1030" d="M195 0v1401h124v-1284h670v-117h-794z" />
<glyph unicode="M" horiz-adv-x="1667" d="M195 0v1419h38l545 -694q15 -21 43 -49l613 743h39v-1419h-125v930q0 93 16 233q-119 -167 -176 -233l-279 -330q89 -66 187 -88l-31 -92q-238 50 -412 262l-200 248q-71 87 -150 211q16 -136 16 -211v-930h-124z" />
<glyph unicode="N" horiz-adv-x="1564" d="M195 0v1421h38l945 -1126q34 -43 69 -76q-8 71 -8 168v1016h125v-1272q62 -34 109 -43l-31 -92q-69 15 -129 42t-109 66t-80.5 70.5t-70.5 77.5l-586 680q-66 75 -162 217q14 -163 14 -217v-932h-124z" />
<glyph unicode="O" horiz-adv-x="1628" d="M123 700q0 204 85 368t243.5 258.5t363.5 94.5q92 0 237 -10t203 -10q156 0 244 82l68 -70q-81 -114 -264 -125q50 -65 91 -139.5t76 -197.5t35 -251q0 -204 -85 -367.5t-243 -258t-362 -94.5q-205 0 -363.5 95t-243.5 258.5t-85 366.5zM248 700q0 -270 156.5 -439 t410.5 -169t410.5 168.5t156.5 439.5q0 97 -21 189t-48.5 154t-65 119.5t-58.5 82t-42 45.5q-30 2 -97.5 7.5t-125 8.5t-111.5 3q-253 0 -409 -169t-156 -440z" />
<glyph unicode="P" horiz-adv-x="1142" d="M10 1413l68 70q88 -82 244 -82q58 0 144.5 10t178.5 10q190 0 308 -126t118 -318q0 -193 -118 -320t-308 -127l-182 5v112q84 -4 176 -4q139 0 225 92.5t86 241.5q0 147 -86 239.5t-225 92.5q-98 0 -174.5 -10t-106.5 -11v-1288h-125v1292q-151 21 -223 121z" />
<glyph unicode="Q" horiz-adv-x="1628" d="M123 700q0 204 85 368t243.5 258.5t363.5 94.5q204 0 362 -95t243 -259t85 -367q0 -204 -85 -367.5t-243 -258t-362 -94.5q-10 0 -29 1t-28 1l-121 -175l164 -55q118 -41 241 -41q84 0 185 72l51 -90q-122 -88 -236 -88q-133 0 -266 45l-203 67l-86 -125l-88 68l242 340 q-238 55 -378 246t-140 454zM248 700q0 -270 156.5 -439t410.5 -169t410.5 168.5t156.5 439.5q0 270 -156.5 439.5t-410.5 169.5t-410.5 -169t-156.5 -440z" />
<glyph unicode="R" horiz-adv-x="1210" d="M10 1413l68 70q88 -82 244 -82q58 0 144.5 10t178.5 10q182 0 298 -114.5t116 -290.5q0 -137 -68.5 -230.5t-189.5 -130.5q64 -29 106.5 -81t77.5 -132l184 -442h-135l-143 365q-47 121 -125 182t-211 61h-197v-608h-125v1292q-151 21 -223 121zM358 721h285 q129 0 211 80t82 215q0 133 -81 213t-216 80q-98 0 -174.5 -10t-106.5 -11v-567z" />
<glyph unicode="S" horiz-adv-x="1089" d="M72 131l67 98q222 -137 414 -137q68 0 125 13.5t103.5 42t73 79t26.5 119.5q0 58 -20 105.5t-48 78.5t-79 61.5t-89.5 47t-103.5 41.5q-151 57 -210 91q-154 90 -181 249q-7 38 -7 80q0 133 111 224t291 91q46 0 108 -2t76 -2q68 0 108.5 15.5t84.5 56.5l67 -70 q-51 -71 -109.5 -93t-150.5 -22q-19 0 -90 2.5t-115 2.5q-118 0 -186 -57.5t-68 -145.5q0 -72 23.5 -123.5t83 -90t96.5 -55t128 -48.5q5 -2 7 -3q67 -24 114.5 -45.5t105.5 -59.5t94 -80.5t61 -107t25 -141.5q0 -78 -27 -141t-72 -104t-107 -69t-129.5 -40t-142.5 -12 q-126 0 -246 42t-212 109z" />
<glyph unicode="T" horiz-adv-x="1165" d="M31 1284v117h1104v-117h-490v-1284h-125v1284h-489z" />
<glyph unicode="U" horiz-adv-x="1464" d="M184 547v854h125v-854q0 -210 115.5 -332.5t306.5 -122.5q192 0 308 122.5t116 332.5v854h125v-854q0 -253 -151 -410t-396 -157q-249 0 -399 156.5t-150 410.5z" />
<glyph unicode="V" horiz-adv-x="1349" d="M72 1391l121 30l342 -1142q52 -185 202 -199l434 1341l117 -35l-452 -1402q-57 -13 -107 -13q-64 0 -118 23.5t-91.5 64t-63.5 87.5t-42 102z" />
<glyph unicode="W" horiz-adv-x="1990" d="M82 1393l121 30l295 -1144q25 -96 68.5 -144.5t123.5 -54.5l258 577v510h125v-510l176 -415q33 -81 77.5 -118.5t109.5 -43.5l366 1345l117 -34l-381 -1407q-57 -13 -106 -13q-211 0 -304 240l-116 295l-234 -522q-57 -13 -106 -13q-63 0 -114 23t-86 64t-58 87.5 t-37 102.5z" />
<glyph unicode="X" horiz-adv-x="1200" d="M102 0l320 748q-84 78 -125 196l-168 445l119 32l170 -446q32 -83 82 -132.5t143 -72.5l19 -6l290 657l119 -32l-299 -682q88 -67 143 -203l203 -504h-131l-192 473q-35 86 -91.5 132.5t-150.5 68.5l-25 6l-290 -680h-136z" />
<glyph unicode="Y" horiz-adv-x="1089" d="M72 1393l121 30l198 -592q62 -195 246 -198l274 788l117 -35l-295 -849q-63 -13 -104 -13v-524h-125v541q-86 29 -145.5 100t-88.5 160z" />
<glyph unicode="Z" horiz-adv-x="1107" d="M82 0v27l735 1257h-694v117h883v-27l-736 -1257h777v-117h-965z" />
<glyph unicode="[" horiz-adv-x="671" d="M102 -356v1892h488v-117h-363v-1659h363v-116h-488z" />
<glyph unicode="\" horiz-adv-x="802" d="M102 1536h129l449 -1679h-131z" />
<glyph unicode="]" horiz-adv-x="671" d="M82 -240h362v1659h-362v117h487v-1892h-487v116z" />
<glyph unicode="^" d="M154 743l358 517h41l358 -517l-102 -71l-281 401l-276 -397z" />
<glyph unicode="_" horiz-adv-x="901" d="M0 -160h901v-112h-901v112z" />
<glyph unicode="`" d="M334 1386l74 101l323 -256l-45 -70z" />
<glyph unicode="a" horiz-adv-x="1007" d="M82 272q0 66 25 119t66 86.5t98 55.5t117 31t126 9h199v115q0 126 -51.5 186t-161.5 60q-76 0 -159 -33t-144 -78l-56 86q64 56 161.5 93.5t197.5 37.5q325 0 325 -329v-416q0 -158 80 -244l-69 -67q-77 58 -107 163q-39 -79 -120.5 -123t-198.5 -44q-145 0 -236.5 76 t-91.5 216zM199 272q0 -98 53.5 -142t157.5 -44q127 0 213 69.5t90 192.5v121h-199q-64 0 -115 -8t-99 -28t-74.5 -61t-26.5 -100z" />
<glyph unicode="b" horiz-adv-x="1132" d="M174 20v1467h113v-600q46 72 126.5 112.5t180.5 40.5q136 0 236 -71t150 -189t50 -266q0 -232 -131.5 -383t-345.5 -151q-108 0 -203 10t-136 20zM287 104q147 -18 264 -18q163 0 262.5 117t99.5 305q0 84 -20.5 160t-59 136t-100.5 95t-139 35q-111 0 -202.5 -69 t-104.5 -193v-568z" />
<glyph unicode="c" horiz-adv-x="890" d="M123 506q0 75 9.5 143.5t36.5 142t70 126.5t116.5 87.5t168.5 34.5q91 0 275 -16v-106q-212 16 -289 16q-75 0 -129.5 -34t-84 -95t-43 -133t-13.5 -160q0 -206 85 -316t240 -110q120 0 273 98l53 -86q-150 -118 -330 -118q-202 0 -320 138.5t-118 387.5z" />
<glyph unicode="d" horiz-adv-x="1142" d="M102 506q0 232 132 383t346 151q126 0 268 -18v467h113v-1194q0 -159 79 -244l-69 -67q-82 60 -109 176q-43 -85 -128.5 -132.5t-194.5 -47.5q-136 0 -236.5 71t-150.5 189t-50 266zM219 512q0 -114 34.5 -208.5t109 -156t176.5 -61.5q55 0 108.5 18.5t99 54t73.5 94.5 t28 132v528q-171 21 -266 21q-164 0 -263.5 -117t-99.5 -305z" />
<glyph unicode="e" d="M123 506q0 106 32 203t89 170.5t141 117t182 43.5q157 0 264 -85t107 -226q0 -70 -25.5 -125.5t-67.5 -91.5t-101.5 -59.5t-122.5 -33t-134 -9.5h-241q19 -161 103 -242.5t241 -81.5q137 0 319 98l54 -86q-172 -118 -373 -118q-229 0 -348 136t-119 390zM240 516h247 q334 0 334 213q0 95 -70.5 153t-183.5 58q-96 0 -172 -62.5t-115 -158.5t-40 -203z" />
<glyph unicode="f" horiz-adv-x="804" d="M174 -512v1524q0 491 322 491q145 0 222 -83.5t77 -207.5q0 -182 -110 -290.5t-300 -108.5h-98v-221h303v-107h-303v-997h-113zM287 920h98q77 0 135 24t91.5 65.5t50 92.5t16.5 110q0 78 -47.5 131.5t-134.5 53.5q-62 0 -105 -30t-64.5 -85.5t-30.5 -118.5t-9 -145v-98z " />
<glyph unicode="g" horiz-adv-x="1208" d="M51 227q0 104 84.5 164.5t218.5 65.5q-73 89 -73 225q0 164 107.5 261t277.5 97q69 0 141 -20h338v-105l-187 13q93 -96 93 -246q0 -163 -107.5 -259.5t-277.5 -96.5q-116 0 -201 43q-40 4 -68 4q-59 0 -108.5 -11.5t-87 -44.5t-37.5 -84q0 -32 12.5 -55.5t33 -37 t54 -21.5t67.5 -10.5t81 -2.5q40 0 135 3.5t147 3.5q76 0 138.5 -6.5t127 -26t108 -51.5t71.5 -87t28 -128q0 -93 -44 -162t-118.5 -106t-159.5 -54.5t-181 -17.5q-75 0 -142.5 10.5t-132.5 35.5t-111.5 62.5t-75 97t-28.5 134.5q0 111 10 223q-133 55 -133 190zM287 -186 q0 -113 96 -173.5t281 -60.5q74 0 137.5 10.5t123.5 35t95 72.5t35 116q0 48 -21 83t-54.5 55t-84.5 32t-100 16t-111 4q-32 0 -113.5 -3t-126.5 -3q-90 0 -151 10q-6 -69 -6 -194zM393 684q0 -114 73.5 -182t197.5 -68q123 0 196.5 68t73.5 182t-73.5 182t-196.5 68 q-124 0 -197.5 -68t-73.5 -182z" />
<glyph unicode="h" horiz-adv-x="1110" d="M174 0v1487h113v-627q129 180 334 180q344 0 344 -329q0 -105 -8.5 -247.5t-8.5 -201.5q0 -138 49 -262h-108q-53 101 -53 274q0 57 8 184t8 230q0 126 -57 186t-174 60q-103 0 -180.5 -51.5t-153.5 -155.5v-727h-113z" />
<glyph unicode="i" horiz-adv-x="483" d="M113 967l69 67q125 -91 125 -311v-723h-112v723q0 156 -82 244zM139 1356q0 40 28 68t66 28q40 0 68.5 -28t28.5 -68q0 -38 -28.5 -66t-68.5 -28q-38 0 -66 28t-28 66z" />
<glyph unicode="j" horiz-adv-x="487" d="M117 967l69 67q125 -91 125 -311v-1235h-112v1235q0 156 -82 244zM143 1356q0 40 28.5 68t66.5 28q40 0 68 -28t28 -68q0 -38 -28 -66t-68 -28q-38 0 -66.5 28t-28.5 66z" />
<glyph unicode="k" horiz-adv-x="1079" d="M174 0v1487h113v-649q105 202 321 202q155 0 254 -84.5t99 -226.5q0 -220 -220 -291q75 -50 119 -139l137 -299h-127l-110 246q-35 77 -84 118.5t-129 45.5h-2h-17h-241v-410h-113zM291 516h237q81 0 140.5 13.5t92.5 33.5t52.5 50t25 56.5t5.5 59.5q0 97 -62.5 154 t-173.5 57q-95 0 -169 -62.5t-111 -158t-37 -203.5z" />
<glyph unicode="l" horiz-adv-x="501" d="M174 293v1194h113v-1194q0 -156 82 -244l-70 -67q-125 91 -125 311z" />
<glyph unicode="m" horiz-adv-x="1673" d="M102 967l70 67q83 -60 111 -180q55 92 137 139t182 47q102 0 178 -48.5t109 -141.5q57 94 142 142t173 48q150 0 238 -87t88 -242q0 -105 -9.5 -247.5t-9.5 -201.5q0 -135 50 -262h-109q-53 101 -53 274q0 57 8 184t8 230q0 246 -209 246q-188 0 -295 -203v-20v-711h-112 v688q0 246 -209 246q-86 0 -169.5 -55t-123.5 -146v-10v-723h-113v723q0 156 -82 244z" />
<glyph unicode="n" horiz-adv-x="1120" d="M102 967l70 67q89 -63 113 -188q133 194 346 194q344 0 344 -329q0 -105 -8.5 -247.5t-8.5 -201.5q0 -135 50 -262h-109q-53 101 -53 274q0 57 8 184t8 230q0 126 -57 186t-174 60q-103 0 -180.5 -51.5t-153.5 -155.5v-4v-723h-113v723q0 156 -82 244z" />
<glyph unicode="o" horiz-adv-x="1222" d="M102 506q0 152 63 273t179.5 191t267.5 70q226 0 367 -149t141 -379q0 -232 -140.5 -382t-367.5 -150q-228 0 -369 147.5t-141 378.5zM219 512q0 -192 107.5 -309t285.5 -117q176 0 284 119.5t108 310.5q0 189 -107.5 303.5t-284.5 114.5q-178 0 -285.5 -116t-107.5 -306 z" />
<glyph unicode="p" horiz-adv-x="1142" d="M102 967l70 67q84 -64 109 -172q43 83 128.5 130.5t194.5 47.5q136 0 236 -71t150 -189t50 -266q0 -232 -131.5 -383t-345.5 -151q-124 0 -266 18v-510h-113v1235q0 156 -82 244zM297 104q147 -18 264 -18q164 0 263.5 117t99.5 305q0 114 -34.5 208.5t-109 156 t-176.5 61.5q-111 0 -202.5 -69t-104.5 -193v-568z" />
<glyph unicode="q" horiz-adv-x="1142" d="M113 506q0 232 131.5 383t345.5 151q108 0 203 -10t135 -20l41 -11v-1511h-113v643q-46 -71 -127 -111t-180 -40q-136 0 -236 71t-150 189t-50 266zM229 512q0 -114 34.5 -208.5t109 -156t176.5 -61.5q51 0 101.5 16.5t94.5 47.5t74.5 82.5t36.5 115.5v565 q-129 21 -264 21q-164 0 -263.5 -117t-99.5 -305z" />
<glyph unicode="r" horiz-adv-x="745" d="M102 967l70 67q87 -65 113 -180q55 95 127 140.5t172 45.5q28 0 58 -4t46 -8l17 -4v-106q-62 14 -136 14q-156 0 -272 -201v-8v-723h-113v723q0 156 -82 244z" />
<glyph unicode="s" horiz-adv-x="854" d="M72 98l57 86q150 -98 305 -98q96 0 157.5 41t61.5 129q0 58 -29 99t-75 65.5t-102 45.5t-112 45.5t-102 57t-75 89.5t-29 135q0 102 82.5 174.5t216.5 72.5q108 0 246 -12v-106q-159 12 -260 12q-76 0 -121 -41.5t-45 -99.5q0 -57 29 -98t75 -65.5t102 -45t112 -45 t102 -57.5t75 -90.5t29 -135.5q0 -73 -29.5 -127.5t-80.5 -86t-112.5 -47t-131.5 -15.5q-97 0 -188 33t-158 85z" />
<glyph unicode="t" horiz-adv-x="815" d="M113 1276l69 67q125 -91 125 -311v-12h324v-113h-324v-614q0 -207 154 -207q111 0 270 98l53 -86q-44 -36 -147 -77t-197 -41q-109 0 -177 72.5t-68 240.5v739q0 156 -82 244z" />
<glyph unicode="u" horiz-adv-x="1097" d="M113 999l98 33q59 -92 59 -287q0 -57 -8 -183.5t-8 -229.5q0 -127 52.5 -186.5t168.5 -59.5q102 0 175.5 51.5t152.5 159.5v723h112v-725q0 -158 80 -244l-69 -67q-89 64 -113 194q-129 -198 -338 -198q-174 0 -254 83.5t-80 245.5q0 105 8.5 247.5t8.5 201.5 q0 138 -45 241z" />
<glyph unicode="v" horiz-adv-x="1056" d="M72 999l110 31l215 -751q51 -189 199 -209l303 960l107 -35l-318 -1011q-57 -13 -96 -13q-64 0 -116.5 23.5t-88.5 64.5t-60 87.5t-40 101.5z" />
<glyph unicode="w" horiz-adv-x="1568" d="M92 999l111 31l184 -751q22 -93 64.5 -146.5t115.5 -62.5l174 505v445h115v-445l105 -296q34 -96 72 -146.5t104 -60.5l254 958l106 -35l-266 -1011q-57 -13 -96 -13q-201 0 -285 277l-53 174l-140 -438q-57 -13 -96 -13q-215 0 -285 277z" />
<glyph unicode="x" horiz-adv-x="960" d="M92 0l234 545q-78 73 -121 205l-92 245l108 33l94 -248q34 -88 79 -137t136 -72q2 -2 9 -2l204 459l109 -33l-209 -477q86 -61 139 -209l107 -309h-121l-96 279q-30 89 -84 135.5t-148 68.5q-6 0 -14 4l-209 -487h-125z" />
<glyph unicode="y" horiz-adv-x="1056" d="M72 999l110 31l215 -751q55 -188 195 -207l307 958l107 -35l-416 -1302q-75 -228 -352 -228l-15 101q109 0 171 41.5t89 122.5l78 243q-201 22 -274 275z" />
<glyph unicode="z" horiz-adv-x="940" d="M61 27l605 886h-527v107h719v-27l-559 -815l164 -57q118 -41 242 -41q83 0 184 72l51 -91q-122 -88 -235 -88q-134 0 -267 45l-202 66l-86 -125z" />
<glyph unicode="{" horiz-adv-x="714" d="M61 535v112q7 1 18.5 2.5t40.5 10t51.5 20.5t41 36.5t18.5 55.5q0 35 -20.5 207t-20.5 260q0 42 9 77t22.5 59.5t38 46t45.5 34t56 26t58 20t63 17.5t61 17l28 -94q-49 -13 -77 -21.5t-62 -22t-52 -26.5t-35 -31.5t-23.5 -42.5t-6.5 -55q0 -45 20.5 -221.5t20.5 -249.5 q0 -42 -15 -76.5t-39 -55.5t-43 -32t-38 -18q19 -6 37.5 -16.5t43 -31t39.5 -55t15 -77.5q0 -73 -20.5 -249.5t-20.5 -221.5q0 -31 6.5 -55t23.5 -42.5t35 -31.5t52 -26.5t62 -22t77 -21.5l-28 -94q-21 6 -61 17t-63 17.5t-58 20t-56 26t-45.5 34t-38 46t-22.5 59.5t-9 77 q0 88 20.5 260t20.5 207q0 31 -17.5 55.5t-42.5 37t-50 20.5t-43 10z" />
<glyph unicode="|" horiz-adv-x="800" d="M338 -143v1679h125v-1679h-125z" />
<glyph unicode="}" horiz-adv-x="714" d="M143 -260q49 13 77 21.5t62 22t52 26.5t35 31.5t23.5 42.5t6.5 55q0 45 -20.5 221.5t-20.5 249.5q0 42 15 76.5t39 55t43.5 31.5t38.5 17q-14 5 -28.5 11.5t-35 21.5t-35.5 34t-26 49.5t-11 65.5q0 73 20.5 249.5t20.5 221.5q0 31 -6.5 55t-23.5 42.5t-35 31.5t-52 26.5 t-62 22t-77 21.5l29 94q21 -6 61 -17t63 -17.5t58 -20t55.5 -26t45 -34t38 -46t22.5 -59.5t9 -77q0 -88 -20.5 -260t-20.5 -207q0 -31 17.5 -55.5t42.5 -37t50 -20.5t43 -10l17 -2v-112q-7 -1 -18.5 -2.5t-40.5 -10t-51.5 -20.5t-41 -36.5t-18.5 -55.5q0 -35 20.5 -207 t20.5 -260q0 -42 -9 -77t-22.5 -59.5t-38 -46t-45 -34t-55.5 -26t-58 -20t-63 -17.5t-61 -17z" />
<glyph unicode="~" d="M113 553q28 80 88.5 114.5t156.5 34.5q62 0 179 -35.5t168 -35.5q55 0 90.5 16t56.5 58l100 -43q-28 -80 -88.5 -115t-156.5 -35q-60 0 -179 36t-168 36q-55 0 -90.5 -16t-56.5 -58z" />
<glyph unicode="&#xa1;" horiz-adv-x="552" d="M61 926q0 47 34 80.5t83 33.5q46 0 80.5 -33.5t34.5 -80.5t-34.5 -82t-80.5 -35q-49 0 -83 34.5t-34 82.5zM70 -383q123 733 123 911q0 27 -5.5 55t-10.5 42l-5 14l115 25q20 -62 20 -136q0 -79 -29.5 -307t-59.5 -416l-30 -188h-118z" />
<glyph unicode="&#xa2;" horiz-adv-x="1044" d="M154 686q0 71 8.5 136.5t33 136.5t63 124t103.5 90.5t150 45.5v317h125v-317q129 -7 213 -15v-106l-213 14v-844q128 15 252 97l53 -86q-59 -46 -140 -78t-165 -39v-305h-125v309q-168 27 -263 162t-95 358zM270 692q0 -175 62.5 -281.5t179.5 -134.5v836 q-67 -6 -115.5 -42t-75.5 -95.5t-39 -129t-12 -153.5z" />
<glyph unicode="&#xa3;" horiz-adv-x="1015" d="M72 621v116h168v256q0 171 99.5 268t309.5 97q29 0 59.5 -1.5t52.5 -3.5t59.5 -6t62.5 -6v-106q-212 16 -248 16q-131 0 -200.5 -67t-69.5 -191v-256h315v-116h-315v-367q0 -14 -5 -72l148 -51q118 -41 242 -41q83 0 184 72l51 -101q-122 -88 -235 -88q-134 0 -267 45 l-151 50q-11 -27 -24 -51t-20 -34l-7 -10l-105 43q3 4 7 11t15 30.5t19.5 49.5t15.5 66t7 81v367h-168z" />
<glyph unicode="&#xa4;" horiz-adv-x="1409" d="M123 70l209 209q-96 122 -96 309q0 185 98 309l-211 213l88 90l217 -217q130 84 274 84q149 0 279 -84l217 217l88 -90l-211 -213q94 -119 94 -307q0 -185 -96 -307l213 -213l-88 -90l-219 219q-133 -86 -277 -86q-149 0 -276 82l-215 -215zM365 590q0 -166 93 -267.5 t247 -101.5t246.5 103.5t92.5 269.5t-92 264t-247 98t-247.5 -100t-92.5 -266z" />
<glyph unicode="&#xa5;" horiz-adv-x="1099" d="M72 1331l121 31l198 -551q72 -196 248 -199l272 748l117 -35l-295 -809q-47 -12 -110 -12v-74h225v-98h-225v-90h225v-99h-225v-143h-111v143h-221v99h221v90h-221v98h221v88q-86 29 -148 100.5t-94 161.5z" />
<glyph unicode="&#xa6;" horiz-adv-x="800" d="M338 -143v757h125v-757h-125zM338 778v758h125v-758h-125z" />
<glyph unicode="&#xa7;" horiz-adv-x="849" d="M133 666q0 61 15 109t38 74t40 38.5t32 17.5q-63 76 -63 176q0 233 415 297l27 -108q-171 -36 -240 -75t-69 -114q0 -48 29 -90.5t72 -72t93.5 -65.5t93.5 -71t72 -89t29 -118q0 -50 -11 -91.5t-25.5 -66t-34 -43.5t-32.5 -26.5t-24 -11.5q65 -78 65 -176 q0 -233 -415 -297l-27 108q171 36 240 75t69 114q0 48 -29 90.5t-72 72t-93.5 65.5t-93.5 71t-72 89t-29 118zM260 666q0 -32 13.5 -59.5t41 -53t53 -44t68 -46t66.5 -45.5q88 43 88 157q0 31 -13 58.5t-41 53t-53.5 44t-68 46.5t-66.5 46q-88 -48 -88 -157z" />
<glyph unicode="&#xa8;" d="M215 1356q0 38 26.5 65t63.5 27q38 0 65 -27t27 -65q0 -37 -27 -63.5t-65 -26.5q-37 0 -63.5 26.5t-26.5 63.5zM668 1356q0 38 26.5 65t63.5 27q38 0 65 -27t27 -65q0 -37 -27 -63.5t-65 -26.5q-37 0 -63.5 26.5t-26.5 63.5z" />
<glyph unicode="&#xa9;" horiz-adv-x="1568" d="M164 498q0 178 77.5 320.5t220 224t324.5 81.5q180 0 322 -80.5t219.5 -221.5t77.5 -318q0 -179 -77.5 -321.5t-219.5 -224t-322 -81.5q-183 0 -325 79.5t-219.5 220.5t-77.5 321zM274 504q0 -237 142 -384t370 -147q224 0 366 150t142 385q0 233 -141 375.5t-367 142.5 q-227 0 -369.5 -145t-142.5 -377zM541 504q0 45 6 86.5t23 86t44 76.5t72.5 53t104.5 21q64 0 170 -8v-96q-95 10 -170 10q-77 0 -110.5 -63t-33.5 -162q0 -110 46 -169.5t130 -59.5q66 0 152 59l45 -78q-106 -76 -209 -76q-125 0 -197.5 84t-72.5 236z" />
<glyph unicode="&#xaa;" horiz-adv-x="630" d="M82 1016q0 86 71 126t173 40h80v49q0 53 -28.5 82.5t-80.5 29.5q-60 0 -145 -49l-46 72q105 64 191 64q101 0 151 -49t50 -140v-213q0 -75 51 -133l-51 -53q-64 48 -74 121q-18 -54 -62 -86.5t-110 -32.5q-75 0 -122.5 45t-47.5 127zM176 1016q0 -39 27 -64.5t69 -25.5 q46 0 84 53t47 127h-77q-62 0 -106 -21t-44 -69z" />
<glyph unicode="&#xab;" horiz-adv-x="1259" d="M123 514q0 43 65 98l422 377l76 -84l-442 -391l442 -391l-76 -84l-422 377q-65 55 -65 98zM553 514q0 43 65 98l422 377l76 -84l-442 -391l442 -391l-76 -84l-422 377q-65 55 -65 98z" />
<glyph unicode="&#xac;" horiz-adv-x="901" d="M82 541v118h737v-358h-127v240h-610z" />
<glyph unicode="&#xad;" horiz-adv-x="802" d="M102 565v119h598v-119h-598z" />
<glyph unicode="&#xae;" horiz-adv-x="1568" d="M164 860q0 271 173.5 449t448.5 178q135 0 251 -47t196.5 -129.5t126 -197.5t45.5 -247q0 -179 -77.5 -321.5t-219.5 -223.5t-322 -81q-183 0 -325 79t-219.5 220.5t-77.5 320.5zM274 866q0 -237 142 -383.5t370 -146.5q224 0 366 149.5t142 384.5q0 233 -141 376 t-367 143q-227 0 -369.5 -145.5t-142.5 -377.5zM479 1194l60 59q49 -49 120 -49q12 0 62.5 5t71.5 5q107 0 173 -60.5t66 -154.5q0 -60 -35.5 -109t-85.5 -67q54 -21 84 -90l78 -188l-96 -41l-66 174q-46 119 -172 119h-45v-305h-98v624q-70 17 -117 78zM694 879h119 q53 0 87 32t34 88q0 55 -39 88t-104 33q-22 0 -46 -2.5t-37 -5.5l-14 -2v-231z" />
<glyph unicode="&#xaf;" d="M199 1284v117h667v-117h-667z" />
<glyph unicode="&#xb0;" horiz-adv-x="747" d="M102 1083q0 121 74.5 199t196.5 78q121 0 196.5 -76.5t75.5 -196.5q0 -121 -74.5 -198.5t-195.5 -77.5q-122 0 -197.5 75.5t-75.5 196.5zM213 1085q0 -78 44 -126t116 -48t117 48t45 126q0 77 -44 126t-116 49t-117 -49t-45 -126z" />
<glyph unicode="&#xb1;" horiz-adv-x="966" d="M102 0v106h762v-106h-762zM102 549v104h324v328h115v-328h323v-104h-323v-330h-115v330h-324z" />
<glyph unicode="&#xb2;" horiz-adv-x="573" d="M82 848v10q0 49 14 90t42 74t52 53.5t62 48.5q57 40 87 72.5t30 69.5q0 40 -22.5 61t-63.5 21q-15 0 -172 -7v86q106 9 165 9q94 0 138.5 -45.5t44.5 -126.5q0 -36 -12.5 -67t-37.5 -58.5t-47.5 -45.5t-58.5 -44q-83 -57 -110 -113h299v-88h-410z" />
<glyph unicode="&#xb3;" horiz-adv-x="548" d="M82 856v88q97 -12 158 -12q62 0 92 22t30 74q0 49 -49 98q-46 -14 -110 -14h-37v90h41q39 0 64.5 4t46 21.5t20.5 48.5q0 74 -88 74q-29 0 -107 -4q-7 0 -29 -1.5t-26 -1.5v87q77 6 158 6q95 0 137.5 -41t42.5 -121q0 -59 -33 -100q64 -68 64 -150q0 -90 -57 -135 t-158 -45q-27 0 -67 3t-67 6z" />
<glyph unicode="&#xb4;" d="M334 1231l323 256l74 -101l-352 -225z" />
<glyph unicode="&#xb5;" horiz-adv-x="1132" d="M174 -512v1532h113v-688h2q0 -127 52.5 -186.5t168.5 -59.5q102 0 175.5 51.5t152.5 159.5v723h112v-725q0 -158 80 -244l-69 -67q-89 64 -113 194q-129 -198 -338 -198q-141 0 -223 57v-549h-113z" />
<glyph unicode="&#xb6;" horiz-adv-x="919" d="M41 883q0 205 124.5 293t393.5 88q26 0 54 -1t85 -2.5t119 -3.5v-1411h-119v1295h-168v-1295h-120v666q-188 24 -278.5 112.5t-90.5 258.5z" />
<glyph unicode="&#xb7;" horiz-adv-x="600" d="M184 659q0 47 34.5 82t80.5 35q49 0 83 -34.5t34 -82.5q0 -47 -34 -80.5t-83 -33.5q-46 0 -80.5 33.5t-34.5 80.5z" />
<glyph unicode="&#xb8;" horiz-adv-x="1705" d="M506 0h108v-135q53 -6 88 -39t35 -84q0 -71 -36.5 -143t-108.5 -125l-70 67q8 9 29.5 31.5t30 33t21 30t17.5 38.5t5 41q0 20 -7.5 33.5t-23.5 20.5t-28 10.5t-33 6t-27 3.5v211z" />
<glyph unicode="&#xb9;" horiz-adv-x="501" d="M82 1292l18 80q27 -6 43 -6q90 0 203 76l12 -8v-586h-98v457q-59 -27 -106 -27q-38 0 -72 14z" />
<glyph unicode="&#xba;" horiz-adv-x="714" d="M72 1135q0 130 78 213.5t206 83.5q129 0 208 -82t79 -211q0 -131 -79 -215t-208 -84q-128 0 -206 83t-78 212zM172 1139q0 -93 50.5 -150t133.5 -57q86 0 137.5 58t51.5 151q0 91 -51.5 144.5t-137.5 53.5q-84 0 -134 -54t-50 -146z" />
<glyph unicode="&#xbb;" horiz-adv-x="1259" d="M143 123l443 391l-443 391l76 84l422 -377q66 -56 66 -98t-66 -98l-422 -377zM573 123l443 391l-443 391l76 84l422 -377q66 -56 66 -98t-66 -98l-422 -377z" />
<glyph unicode="&#xbc;" horiz-adv-x="1423" d="M184 1208l19 80q27 -6 43 -6q90 0 203 76l12 -8v-586h-99v457q-59 -27 -106 -27q-38 0 -72 14zM451 0l448 1337h119l-447 -1337h-120zM985 193l53 380h92l-40 -290h198v290h94v-573h-94v193h-303z" />
<glyph unicode="&#xbd;" horiz-adv-x="1398" d="M184 1208l19 80q27 -6 43 -6q82 0 174 57l29 19l12 -8v-586h-99v457q-59 -27 -106 -27q-38 0 -72 14zM451 0l448 1337h119l-447 -1337h-120zM948 0v10q0 49 14 90t42 74t52 53.5t62 48.5q57 40 87 72.5t30 69.5q0 40 -22.5 61t-63.5 21q-37 0 -172 -6v86q94 8 166 8 q182 0 182 -172q0 -36 -12.5 -67t-37.5 -58.5t-47.5 -45.5t-58.5 -44q-83 -57 -110 -113h299v-88h-410z" />
<glyph unicode="&#xbe;" horiz-adv-x="1462" d="M205 768v88q96 -12 157 -12q62 0 92.5 22t30.5 74q0 49 -49 98q-46 -14 -110 -14h-37v90h41q39 0 64.5 4t46 21.5t20.5 48.5q0 74 -88 74q-9 0 -107 -5q-8 0 -29 -1t-26 -1v86q89 7 158 7q95 0 137.5 -41t42.5 -121q0 -60 -33 -101q64 -68 64 -149q0 -90 -57 -135 t-158 -45q-27 0 -67 3t-66 6zM489 0l449 1337h119l-447 -1337h-121zM1024 193l53 380h92l-41 -290h199v290h94v-573h-94v193h-303z" />
<glyph unicode="&#xbf;" horiz-adv-x="880" d="M20 -35q0 71 24 129t63 97t85.5 72t93.5 61.5t86 56.5t63 65.5t24 81.5q0 27 -5.5 55t-10.5 42l-5 14l121 25q21 -62 21 -136q0 -65 -24.5 -116.5t-63.5 -86t-86.5 -64.5t-94.5 -58.5t-86 -60.5t-63.5 -78.5t-24.5 -104.5q0 -124 70 -191t201 -67q158 0 370 16v-106 q-195 -17 -356 -17q-208 0 -305 99t-97 272zM319 926q0 47 34 80.5t83 33.5q46 0 80.5 -33.5t34.5 -80.5t-34.5 -82t-80.5 -35q-49 0 -83 34.5t-34 82.5z" />
<glyph unicode="&#xc0;" horiz-adv-x="1300" d="M20 0l609 1440h39l612 -1440h-131l-199 465h-604l-194 -465h-132zM254 1573l37 119l397 -129l-24 -82zM395 582h506l-203 477q-28 63 -51 160q-19 -88 -49 -160z" />
<glyph unicode="&#xc1;" horiz-adv-x="1300" d="M20 0l609 1440h39l612 -1440h-131l-199 465h-604l-194 -465h-132zM395 582h506l-203 477q-28 63 -51 160q-19 -88 -49 -160zM606 1563l398 129l36 -119l-409 -92z" />
<glyph unicode="&#xc2;" horiz-adv-x="1300" d="M20 0l609 1440h39l612 -1440h-131l-199 465h-604l-194 -465h-132zM328 1546l223 211q26 24 38 34.5t29 21t31 10.5q20 0 41 -15.5t58 -50.5l223 -209l-76 -75l-246 229l-246 -232zM395 582h506l-203 477q-28 63 -51 160q-19 -88 -49 -160z" />
<glyph unicode="&#xc3;" horiz-adv-x="1300" d="M20 0l609 1440h39l612 -1440h-131l-199 465h-604l-194 -465h-132zM236 1612q28 80 88.5 114.5t156.5 34.5q62 0 178.5 -35.5t167.5 -35.5q56 0 92 15.5t56 57.5l100 -43q-28 -80 -89 -114.5t-157 -34.5q-60 0 -178.5 35.5t-167.5 35.5q-56 0 -91.5 -15.5t-55.5 -57.5z M395 582h506l-203 477q-28 63 -51 160q-19 -88 -49 -160z" />
<glyph unicode="&#xc4;" horiz-adv-x="1300" d="M20 0l609 1440h39l612 -1440h-131l-199 465h-604l-194 -465h-132zM328 1665q0 38 26.5 65t63.5 27q38 0 65 -27t27 -65q0 -37 -27 -63.5t-65 -26.5q-37 0 -63.5 26.5t-26.5 63.5zM395 582h506l-203 477q-28 63 -51 160q-19 -88 -49 -160zM780 1665q0 38 26.5 65t63.5 27 q38 0 65.5 -27t27.5 -65q0 -37 -27.5 -63.5t-65.5 -26.5q-37 0 -63.5 26.5t-26.5 63.5z" />
<glyph unicode="&#xc5;" horiz-adv-x="1300" d="M20 0l574 1358q-70 15 -111 70t-41 133q0 94 56.5 153.5t150.5 59.5q92 0 149.5 -59t57.5 -150q0 -78 -42 -135t-112 -72l578 -1358h-131l-199 465h-604l-194 -465h-132zM395 582h506l-203 477q-28 63 -51 160q-19 -88 -49 -160zM543 1563q0 -54 24.5 -87t69.5 -36h20 q45 3 72 36.5t27 86.5q0 55 -27.5 87.5t-77.5 32.5t-79 -32.5t-29 -87.5z" />
<glyph unicode="&#xc6;" horiz-adv-x="1802" d="M0 0l735 1401h965v-117h-793v-485h649v-117h-649v-565h834v-117h-959v465h-393l-239 -465h-150zM449 582h333v694q-22 -91 -71 -189z" />
<glyph unicode="&#xc7;" horiz-adv-x="1318" d="M123 700q0 203 84 367t238 259t350 95q215 0 328.5 -76.5t113.5 -207.5q0 -122 -108.5 -193.5t-333.5 -71.5h-529q-18 -80 -18 -172h-125zM123 700h125q0 -277 120.5 -442.5t344.5 -165.5q114 0 243 51.5t218 108.5l53 -92q-78 -61 -207 -116t-270 -62v-117 q53 -6 87.5 -39t34.5 -84q0 -71 -36.5 -143t-108.5 -125l-70 67q8 9 29.5 31.5t30 33t21 30t17.5 38.5t5 41q0 20 -7.5 33.5t-23.5 20.5t-28 10.5t-33 6t-27 3.5v195q-130 13 -230.5 72.5t-162.5 156t-93.5 219.5t-31.5 268zM299 979h496q175 0 244 39t69 119q0 84 -80 128 t-233 44q-170 0 -300.5 -88t-195.5 -242z" />
<glyph unicode="&#xc8;" horiz-adv-x="1214" d="M195 0v1401h917v-117h-793v-485h650v-117h-650v-565h834v-117h-958zM279 1571l36 119l398 -129l-25 -82z" />
<glyph unicode="&#xc9;" horiz-adv-x="1214" d="M195 0v1401h917v-117h-793v-485h650v-117h-650v-565h834v-117h-958zM631 1561l397 129l37 -119l-410 -92z" />
<glyph unicode="&#xca;" horiz-adv-x="1214" d="M195 0v1401h917v-117h-793v-485h650v-117h-650v-565h834v-117h-958zM352 1544l223 211q25 23 38 34.5t30 21.5t31 10t31 -10.5t29 -21t38 -34.5l223 -209l-75 -76l-246 230l-246 -232z" />
<glyph unicode="&#xcb;" horiz-adv-x="1214" d="M195 0v1401h917v-117h-793v-485h650v-117h-650v-565h834v-117h-958zM352 1663q0 38 26.5 65t63.5 27q38 0 65.5 -27t27.5 -65q0 -37 -27.5 -63.5t-65.5 -26.5q-37 0 -63.5 26.5t-26.5 63.5zM805 1663q0 38 26.5 65t63.5 27q38 0 65 -27t27 -65q0 -37 -27 -63.5t-65 -26.5 q-37 0 -63.5 26.5t-26.5 63.5z" />
<glyph unicode="&#xcc;" horiz-adv-x="514" d="M-139 1573l37 119l397 -129l-25 -82zM195 0v1401h124v-1401h-124z" />
<glyph unicode="&#xcd;" horiz-adv-x="514" d="M195 0v1401h124v-1401h-124zM213 1563l397 129l37 -119l-409 -92z" />
<glyph unicode="&#xce;" horiz-adv-x="514" d="M-66 1546l224 211q26 24 38 34.5t29 21t31 10.5t31 -10.5t29 -21t38 -34.5l224 -209l-76 -75l-246 229l-246 -232zM195 0v1401h124v-1401h-124z" />
<glyph unicode="&#xcf;" horiz-adv-x="514" d="M-66 1665q0 38 27 65t64 27q38 0 65 -27t27 -65q0 -37 -27 -63.5t-65 -26.5q-37 0 -64 26.5t-27 63.5zM195 0v1401h124v-1401h-124zM387 1665q0 38 26.5 65t63.5 27q38 0 65 -27t27 -65q0 -37 -27 -63.5t-65 -26.5q-37 0 -63.5 26.5t-26.5 63.5z" />
<glyph unicode="&#xd0;" horiz-adv-x="1595" d="M20 797v116h234v379q-151 21 -223 121l67 70q88 -82 244 -82q58 0 193 10t227 10q160 0 294.5 -55.5t225 -152t141 -229t50.5 -284.5q0 -205 -86 -368t-249 -257.5t-376 -94.5q-186 0 -313 5t-161 10l-34 5v797h-234zM379 102q140 -10 383 -10q268 0 428 168t160 440 q0 271 -160.5 440t-427.5 169q-83 0 -209.5 -10t-173.5 -11v-375h250v-116h-250v-695z" />
<glyph unicode="&#xd1;" horiz-adv-x="1564" d="M195 0v1421h38l945 -1126q34 -43 69 -76q-8 71 -8 168v1016h125v-1272q62 -34 109 -43l-31 -92q-69 15 -129 42t-109 66t-80.5 70.5t-70.5 77.5l-586 680q-66 75 -162 217q14 -163 14 -217v-932h-124zM365 1612q28 80 88.5 114.5t156.5 34.5q62 0 178.5 -35.5 t167.5 -35.5q56 0 92 15.5t56 57.5l100 -43q-28 -80 -89 -114.5t-157 -34.5q-60 0 -178.5 35.5t-167.5 35.5q-56 0 -91.5 -15.5t-55.5 -57.5z" />
<glyph unicode="&#xd2;" horiz-adv-x="1628" d="M123 700q0 204 85 368t243.5 258.5t363.5 94.5q92 0 237 -10t203 -10q156 0 244 82l68 -70q-81 -114 -264 -125q50 -65 91 -139.5t76 -197.5t35 -251q0 -204 -85 -367.5t-243 -258t-362 -94.5q-205 0 -363.5 95t-243.5 258.5t-85 366.5zM248 700q0 -270 156.5 -439 t410.5 -169t410.5 168.5t156.5 439.5q0 97 -21 189t-48.5 154t-65 119.5t-58.5 82t-42 45.5q-30 2 -97.5 7.5t-125 8.5t-111.5 3q-253 0 -409 -169t-156 -440zM428 1571l37 119l397 -129l-24 -82z" />
<glyph unicode="&#xd3;" horiz-adv-x="1628" d="M123 700q0 204 85 368t243.5 258.5t363.5 94.5q92 0 237 -10t203 -10q156 0 244 82l68 -70q-81 -114 -264 -125q50 -65 91 -139.5t76 -197.5t35 -251q0 -204 -85 -367.5t-243 -258t-362 -94.5q-205 0 -363.5 95t-243.5 258.5t-85 366.5zM248 700q0 -270 156.5 -439 t410.5 -169t410.5 168.5t156.5 439.5q0 97 -21 189t-48.5 154t-65 119.5t-58.5 82t-42 45.5q-30 2 -97.5 7.5t-125 8.5t-111.5 3q-253 0 -409 -169t-156 -440zM780 1561l398 129l36 -119l-409 -92z" />
<glyph unicode="&#xd4;" horiz-adv-x="1628" d="M123 700q0 204 85 368t243.5 258.5t363.5 94.5q92 0 237 -10t203 -10q156 0 244 82l68 -70q-81 -114 -264 -125q50 -65 91 -139.5t76 -197.5t35 -251q0 -204 -85 -367.5t-243 -258t-362 -94.5q-205 0 -363.5 95t-243.5 258.5t-85 366.5zM248 700q0 -270 156.5 -439 t410.5 -169t410.5 168.5t156.5 439.5q0 97 -21 189t-48.5 154t-65 119.5t-58.5 82t-42 45.5q-30 2 -97.5 7.5t-125 8.5t-111.5 3q-253 0 -409 -169t-156 -440zM502 1544l223 211q26 24 38 34.5t29 21t31 10.5q20 0 41 -15.5t58 -50.5l223 -209l-76 -76l-246 230l-245 -232z " />
<glyph unicode="&#xd5;" horiz-adv-x="1628" d="M123 700q0 204 85 368t243.5 258.5t363.5 94.5q92 0 237 -10t203 -10q156 0 244 82l68 -70q-81 -114 -264 -125q50 -65 91 -139.5t76 -197.5t35 -251q0 -204 -85 -367.5t-243 -258t-362 -94.5q-205 0 -363.5 95t-243.5 258.5t-85 366.5zM248 700q0 -270 156.5 -439 t410.5 -169t410.5 168.5t156.5 439.5q0 97 -21 189t-48.5 154t-65 119.5t-58.5 82t-42 45.5q-30 2 -97.5 7.5t-125 8.5t-111.5 3q-253 0 -409 -169t-156 -440zM410 1610q28 80 88.5 114.5t156.5 34.5q62 0 178.5 -35.5t167.5 -35.5q56 0 92 15.5t56 57.5l100 -43 q-28 -80 -88.5 -114.5t-156.5 -34.5q-60 0 -179 35.5t-168 35.5q-56 0 -91.5 -15.5t-55.5 -57.5z" />
<glyph unicode="&#xd6;" horiz-adv-x="1628" d="M123 700q0 204 85 368t243.5 258.5t363.5 94.5q92 0 237 -10t203 -10q156 0 244 82l68 -70q-81 -114 -264 -125q50 -65 91 -139.5t76 -197.5t35 -251q0 -204 -85 -367.5t-243 -258t-362 -94.5q-205 0 -363.5 95t-243.5 258.5t-85 366.5zM248 700q0 -270 156.5 -439 t410.5 -169t410.5 168.5t156.5 439.5q0 97 -21 189t-48.5 154t-65 119.5t-58.5 82t-42 45.5q-30 2 -97.5 7.5t-125 8.5t-111.5 3q-253 0 -409 -169t-156 -440zM502 1663q0 38 26.5 65t63.5 27q38 0 65 -27t27 -65q0 -37 -27 -63.5t-65 -26.5q-37 0 -63.5 26.5t-26.5 63.5z M954 1663q0 38 26.5 65t63.5 27q38 0 65.5 -27t27.5 -65q0 -37 -27.5 -63.5t-65.5 -26.5q-37 0 -63.5 26.5t-26.5 63.5z" />
<glyph unicode="&#xd7;" horiz-adv-x="1028" d="M123 238l305 305l-291 293l88 88l291 -293l291 293l84 -84l-291 -291l305 -305l-88 -88l-305 305l-305 -307z" />
<glyph unicode="&#xd8;" horiz-adv-x="1628" d="M123 700q0 204 85 368t243.5 258.5t363.5 94.5q92 0 237 -10t203 -10q156 0 244 82l68 -70q-81 -114 -264 -125q50 -65 91 -139.5t76 -197.5t35 -251q0 -204 -85 -367.5t-243 -258t-362 -94.5q-192 0 -348 86l-61 -109l-101 61l74 107q-122 97 -189 246.5t-67 328.5z M248 700q0 -150 49.5 -271.5t142.5 -203.5l690 1067q-22 1 -91.5 6.5t-121.5 8t-104 2.5q-253 0 -409 -169t-156 -440zM537 160q127 -68 278 -68q254 0 410.5 168.5t156.5 439.5q0 285 -165 510z" />
<glyph unicode="&#xd9;" horiz-adv-x="1464" d="M184 547v854h125v-854q0 -210 115.5 -332.5t306.5 -122.5q192 0 308 122.5t116 332.5v854h125v-854q0 -253 -151 -410t-396 -157q-249 0 -399 156.5t-150 410.5zM338 1573l37 119l397 -129l-24 -82z" />
<glyph unicode="&#xda;" horiz-adv-x="1464" d="M184 547v854h125v-854q0 -210 115.5 -332.5t306.5 -122.5q192 0 308 122.5t116 332.5v854h125v-854q0 -253 -151 -410t-396 -157q-249 0 -399 156.5t-150 410.5zM690 1563l397 129l37 -119l-409 -92z" />
<glyph unicode="&#xdb;" horiz-adv-x="1464" d="M184 547v854h125v-854q0 -210 115.5 -332.5t306.5 -122.5q192 0 308 122.5t116 332.5v854h125v-854q0 -253 -151 -410t-396 -157q-249 0 -399 156.5t-150 410.5zM412 1546l223 211q26 24 38 34.5t29 21t31 10.5t31 -10.5t29 -21t38 -34.5l224 -209l-76 -75l-246 229 l-246 -232z" />
<glyph unicode="&#xdc;" horiz-adv-x="1464" d="M184 547v854h125v-854q0 -210 115.5 -332.5t306.5 -122.5q192 0 308 122.5t116 332.5v854h125v-854q0 -253 -151 -410t-396 -157q-249 0 -399 156.5t-150 410.5zM412 1665q0 38 26.5 65t63.5 27q38 0 65 -27t27 -65q0 -37 -27 -63.5t-65 -26.5q-37 0 -63.5 26.5 t-26.5 63.5zM864 1665q0 38 26.5 65t63.5 27q38 0 65.5 -27t27.5 -65q0 -37 -27.5 -63.5t-65.5 -26.5q-37 0 -63.5 26.5t-26.5 63.5z" />
<glyph unicode="&#xdd;" horiz-adv-x="1089" d="M72 1393l121 30l198 -592q62 -195 246 -198l274 788l117 -35l-295 -849q-63 -13 -104 -13v-524h-125v541q-86 29 -145.5 100t-88.5 160zM526 1563l398 129l37 -119l-410 -92z" />
<glyph unicode="&#xde;" horiz-adv-x="1081" d="M195 0v1401h124v-260q159 14 265 14q190 0 308 -126t118 -318q0 -193 -118 -320t-308 -127q-47 0 -146.5 1t-118.5 1v-266h-124zM319 379q18 0 117 -1t142 -1q139 0 225 92.5t86 241.5q0 147 -86 239t-225 92q-100 0 -259 -14v-649z" />
<glyph unicode="&#xdf;" horiz-adv-x="1048" d="M174 -512v1524q0 491 322 491q148 0 223.5 -73t75.5 -197q0 -56 -20.5 -100t-49.5 -71.5t-58.5 -51t-50 -52.5t-20.5 -63q0 -53 21 -92.5t54.5 -65.5t74 -50.5t81.5 -54t74.5 -67.5t54.5 -101.5t21 -146.5q0 -151 -108 -244t-287 -93q-127 0 -295 16v-508h-113zM287 102 q124 -16 311 -16q123 0 191.5 62t68.5 169q0 63 -21.5 111t-55.5 78t-75.5 56t-82.5 53.5t-75 61.5t-55.5 89.5t-21.5 128.5q0 54 21.5 96.5t51.5 69t60.5 50t52 54.5t21.5 68q0 76 -46.5 120t-135.5 44q-62 0 -105 -30t-64.5 -85.5t-30.5 -118.5t-9 -145v-916z" />
<glyph unicode="&#xe0;" horiz-adv-x="1028" d="M102 272q0 66 25 119t66.5 86.5t98.5 55.5t117 31t126 9h198v115q0 126 -51.5 186t-161.5 60q-76 0 -159 -33t-144 -78l-55 86q64 56 161 93.5t197 37.5q326 0 326 -329v-416q0 -158 80 -244l-70 -67q-76 57 -106 163q-39 -79 -121 -123t-199 -44q-145 0 -236.5 76 t-91.5 216zM182 1386l74 101l324 -256l-45 -70zM219 272q0 -98 53.5 -142t157.5 -44q127 0 213 69.5t90 192.5v121h-198q-65 0 -115.5 -8t-99 -28t-75 -61t-26.5 -100z" />
<glyph unicode="&#xe1;" horiz-adv-x="1028" d="M102 272q0 66 25 119t66.5 86.5t98.5 55.5t117 31t126 9h198v115q0 126 -51.5 186t-161.5 60q-76 0 -159 -33t-144 -78l-55 86q64 56 161 93.5t197 37.5q326 0 326 -329v-416q0 -158 80 -244l-70 -67q-76 57 -106 163q-39 -79 -121 -123t-199 -44q-145 0 -236.5 76 t-91.5 216zM219 272q0 -98 53.5 -142t157.5 -44q130 0 216.5 73.5t86.5 202.5v107h-198q-65 0 -115.5 -8t-99 -28t-75 -61t-26.5 -100zM463 1231l323 256l74 -101l-352 -225z" />
<glyph unicode="&#xe2;" horiz-adv-x="1028" d="M102 272q0 66 25 119t66.5 86.5t98.5 55.5t117 31t126 9h198v115q0 126 -51.5 186t-161.5 60q-76 0 -159 -33t-144 -78l-55 86q64 56 161 93.5t197 37.5q326 0 326 -329v-416q0 -158 80 -244l-70 -67q-76 57 -106 163q-39 -79 -121 -123t-199 -44q-145 0 -236.5 76 t-91.5 216zM199 1255l223 252q56 66 98 66t98 -66l224 -250l-76 -67l-246 272l-246 -274zM219 272q0 -98 53.5 -142t157.5 -44q130 0 216.5 73.5t86.5 202.5v107h-198q-65 0 -115.5 -8t-99 -28t-75 -61t-26.5 -100z" />
<glyph unicode="&#xe3;" horiz-adv-x="1028" d="M102 272q0 66 25 119t66.5 86.5t98.5 55.5t117 31t126 9h198v115q0 126 -51.5 186t-161.5 60q-76 0 -159 -33t-144 -78l-55 86q64 56 161 93.5t197 37.5q326 0 326 -329v-416q0 -158 80 -244l-70 -67q-76 57 -106 163q-39 -79 -121 -123t-199 -44q-145 0 -236.5 76 t-91.5 216zM115 1284q28 80 88.5 115t156.5 35q62 0 158.5 -36t147.5 -36q55 0 90.5 16t56.5 58l100 -37q-28 -80 -88.5 -115t-156.5 -35q-60 0 -158.5 36t-147.5 36q-55 0 -90.5 -16t-56.5 -58zM219 272q0 -98 53.5 -142t157.5 -44q127 0 213 69.5t90 192.5v121h-198 q-65 0 -115.5 -8t-99 -28t-75 -61t-26.5 -100z" />
<glyph unicode="&#xe4;" horiz-adv-x="1028" d="M102 272q0 66 25 119t66.5 86.5t98.5 55.5t117 31t126 9h198v115q0 126 -51.5 186t-161.5 60q-76 0 -159 -33t-144 -78l-55 86q64 56 161 93.5t197 37.5q326 0 326 -329v-416q0 -158 80 -244l-70 -67q-76 57 -106 163q-39 -79 -121 -123t-199 -44q-145 0 -236.5 76 t-91.5 216zM201 1356q0 38 26.5 65t63.5 27q38 0 65 -27t27 -65q0 -37 -27 -63.5t-65 -26.5q-37 0 -63.5 26.5t-26.5 63.5zM219 272q0 -98 53.5 -142t157.5 -44q130 0 216.5 73.5t86.5 202.5v107h-198q-65 0 -115.5 -8t-99 -28t-75 -61t-26.5 -100zM653 1356q0 38 26.5 65 t63.5 27q38 0 65.5 -27t27.5 -65q0 -37 -27.5 -63.5t-65.5 -26.5q-37 0 -63.5 26.5t-26.5 63.5z" />
<glyph unicode="&#xe5;" horiz-adv-x="1028" d="M102 272q0 66 25 119t66.5 86.5t98.5 55.5t117 31t126 9h198v115q0 126 -51.5 186t-161.5 60q-76 0 -159 -33t-144 -78l-55 86q64 56 161 93.5t197 37.5q326 0 326 -329v-416q0 -158 80 -244l-70 -67q-76 57 -106 163q-39 -79 -121 -123t-199 -44q-145 0 -236.5 76 t-91.5 216zM219 272q0 -98 53.5 -142t157.5 -44q130 0 216.5 73.5t86.5 202.5v107h-198q-65 0 -115.5 -8t-99 -28t-75 -61t-26.5 -100zM311 1329q0 94 56.5 153.5t150.5 59.5q92 0 149.5 -59t57.5 -150q0 -93 -57 -153t-150 -60q-94 0 -150.5 58t-56.5 151zM412 1331 q0 -57 27 -90t77 -33q51 0 80 33.5t29 89.5q0 55 -27.5 88t-77.5 33t-79 -33t-29 -88z" />
<glyph unicode="&#xe6;" horiz-adv-x="1671" d="M102 272q0 66 25 119t66.5 86.5t98.5 55.5t117 31t126 9h198v115q0 126 -51.5 186t-161.5 60q-76 0 -159 -33t-144 -78l-55 86q64 56 161 93.5t197 37.5q247 0 303 -221q55 102 145 161.5t206 59.5q157 0 263.5 -85t106.5 -226q0 -70 -25.5 -125.5t-67.5 -91.5 t-101 -59.5t-122 -33t-134 -9.5h-242q19 -161 103 -242.5t241 -81.5q138 0 320 98l53 -86q-172 -118 -373 -118q-309 0 -405 253q-21 -113 -117 -183t-244 -70q-145 0 -236.5 76t-91.5 216zM219 272q0 -98 53.5 -142t157.5 -44q130 0 216.5 73.5t86.5 202.5v107h-198 q-65 0 -115.5 -8t-99 -28t-75 -61t-26.5 -100zM846 516h248q333 0 333 213q0 95 -70 153t-183 58q-96 0 -172 -62.5t-115.5 -158.5t-40.5 -203z" />
<glyph unicode="&#xe7;" horiz-adv-x="890" d="M123 506q0 75 9.5 143.5t36.5 142t70 126.5t116.5 87.5t168.5 34.5q91 0 275 -16v-106q-212 16 -289 16q-75 0 -129.5 -34t-84 -95t-43 -133t-13.5 -160q0 -206 85 -316t240 -110q120 0 273 98l53 -86q-139 -105 -295 -116v-117q53 -6 88 -39t35 -84q0 -71 -36.5 -143 t-109.5 -125l-69 67q7 8 29 31.5t30 33.5t21 29.5t17.5 38.5t4.5 41q0 20 -7.5 33.5t-23.5 20.5t-28 10.5t-33 6t-27 3.5v197q-171 24 -267.5 159t-96.5 361z" />
<glyph unicode="&#xe8;" d="M123 506q0 106 32 203t89 170.5t141 117t182 43.5q157 0 264 -85t107 -226q0 -70 -25.5 -125.5t-67.5 -91.5t-101.5 -59.5t-122.5 -33t-134 -9.5h-241q19 -161 103 -242.5t241 -81.5q137 0 319 98l54 -86q-172 -118 -373 -118q-229 0 -348 136t-119 390zM229 1386l74 101 l324 -256l-45 -70zM240 516h247q334 0 334 213q0 95 -70.5 153t-183.5 58q-96 0 -172 -62.5t-115 -158.5t-40 -203z" />
<glyph unicode="&#xe9;" d="M123 506q0 106 32 203t89 170.5t141 117t182 43.5q157 0 264 -85t107 -226q0 -70 -25.5 -125.5t-67.5 -91.5t-101.5 -59.5t-122.5 -33t-134 -9.5h-241q19 -161 103 -242.5t241 -81.5q137 0 319 98l54 -86q-172 -118 -373 -118q-229 0 -348 136t-119 390zM240 516h247 q334 0 334 213q0 95 -70.5 153t-183.5 58q-96 0 -172 -62.5t-115 -158.5t-40 -203zM510 1231l324 256l73 -101l-352 -225z" />
<glyph unicode="&#xea;" d="M123 506q0 106 32 203t89 170.5t141 117t182 43.5q157 0 264 -85t107 -226q0 -70 -25.5 -125.5t-67.5 -91.5t-101.5 -59.5t-122.5 -33t-134 -9.5h-241q19 -161 103 -242.5t241 -81.5q137 0 319 98l54 -86q-172 -118 -373 -118q-229 0 -348 136t-119 390zM240 516h247 q334 0 334 213q0 95 -70.5 153t-183.5 58q-96 0 -172 -62.5t-115 -158.5t-40 -203zM246 1255l223 252q56 66 98 66q43 0 99 -66l223 -250l-76 -67l-246 272l-245 -274z" />
<glyph unicode="&#xeb;" d="M123 506q0 106 32 203t89 170.5t141 117t182 43.5q157 0 264 -85t107 -226q0 -70 -25.5 -125.5t-67.5 -91.5t-101.5 -59.5t-122.5 -33t-134 -9.5h-241q19 -161 103 -242.5t241 -81.5q137 0 319 98l54 -86q-172 -118 -373 -118q-229 0 -348 136t-119 390zM240 516h247 q334 0 334 213q0 95 -70.5 153t-183.5 58q-96 0 -172 -62.5t-115 -158.5t-40 -203zM248 1356q0 38 26.5 65t63.5 27q38 0 65 -27t27 -65q0 -37 -27 -63.5t-65 -26.5q-37 0 -63.5 26.5t-26.5 63.5zM700 1356q0 38 27 65t64 27q38 0 65 -27t27 -65q0 -37 -27 -63.5t-65 -26.5 q-37 0 -64 26.5t-27 63.5z" />
<glyph unicode="&#xec;" horiz-adv-x="481" d="M-33 1432l103 67l184 -303l-68 -49zM113 967l69 67q125 -91 125 -311v-723h-112v723q0 156 -82 244z" />
<glyph unicode="&#xed;" horiz-adv-x="481" d="M109 1196l184 303l102 -67l-219 -285zM113 967l69 67q125 -91 125 -311v-723h-112v723q0 156 -82 244z" />
<glyph unicode="&#xee;" horiz-adv-x="481" d="M-33 1255l183 252q48 66 98 66t98 -66l182 -250l-86 -61l-194 262l-193 -262zM113 967l69 67q125 -91 125 -311v-723h-112v723q0 156 -82 244z" />
<glyph unicode="&#xef;" horiz-adv-x="481" d="M-78 1356q0 38 26.5 65t63.5 27q38 0 65 -27t27 -65q0 -37 -27 -63.5t-65 -26.5q-37 0 -63.5 26.5t-26.5 63.5zM113 967l69 67q125 -91 125 -311v-723h-112v723q0 156 -82 244zM252 1356q0 38 26.5 65t63.5 27q38 0 65 -27t27 -65q0 -37 -27 -63.5t-65 -26.5 q-37 0 -63.5 26.5t-26.5 63.5z" />
<glyph unicode="&#xf0;" horiz-adv-x="1202" d="M102 506q0 152 63 273t179.5 191t267.5 70q101 0 217 -22l-51 151h-225v113h186l-61 182l119 37l71 -219h232v-113h-193l105 -313q65 -189 65 -360q0 -238 -126.5 -377t-338.5 -139q-228 0 -369 147.5t-141 378.5zM219 512q0 -192 107.5 -309t285.5 -117 q165 0 255.5 110.5t90.5 284.5q0 165 -63 348l-27 74q-53 12 -136 21.5t-120 9.5q-178 0 -285.5 -116t-107.5 -306z" />
<glyph unicode="&#xf1;" horiz-adv-x="1120" d="M102 967l70 67q89 -63 113 -188q133 194 346 194q344 0 344 -329q0 -105 -8.5 -247.5t-8.5 -201.5q0 -135 50 -262h-109q-53 101 -53 274q0 57 8 184t8 230q0 126 -57 186t-174 60q-103 0 -180.5 -51.5t-153.5 -155.5v-4v-723h-113v723q0 156 -82 244zM160 1284 q28 80 89 115t157 35q62 0 158 -36t147 -36q55 0 90.5 16t56.5 58l100 -37q-28 -80 -88.5 -115t-156.5 -35q-60 0 -158 36t-147 36q-55 0 -91 -16t-57 -58z" />
<glyph unicode="&#xf2;" horiz-adv-x="1222" d="M102 506q0 152 63 273t179.5 191t267.5 70q226 0 367 -149t141 -379q0 -232 -140.5 -382t-367.5 -150q-228 0 -369 147.5t-141 378.5zM219 512q0 -192 107.5 -309t285.5 -117q176 0 284 119.5t108 310.5q0 189 -107.5 303.5t-284.5 114.5q-178 0 -285.5 -116t-107.5 -306 zM274 1386l74 101l324 -256l-45 -70z" />
<glyph unicode="&#xf3;" horiz-adv-x="1222" d="M102 506q0 152 63 273t179.5 191t267.5 70q226 0 367 -149t141 -379q0 -232 -140.5 -382t-367.5 -150q-228 0 -369 147.5t-141 378.5zM219 512q0 -192 107.5 -309t285.5 -117q176 0 284 119.5t108 310.5q0 189 -107.5 303.5t-284.5 114.5q-178 0 -285.5 -116t-107.5 -306 zM555 1231l324 256l73 -101l-352 -225z" />
<glyph unicode="&#xf4;" horiz-adv-x="1222" d="M102 506q0 152 63 273t179.5 191t267.5 70q226 0 367 -149t141 -379q0 -232 -140.5 -382t-367.5 -150q-228 0 -369 147.5t-141 378.5zM219 512q0 -192 107.5 -309t285.5 -117q176 0 284 119.5t108 310.5q0 189 -107.5 303.5t-284.5 114.5q-178 0 -285.5 -116t-107.5 -306 zM291 1255l223 252q56 66 98 66q43 0 99 -66l223 -250l-76 -67l-246 272l-245 -274z" />
<glyph unicode="&#xf5;" horiz-adv-x="1222" d="M102 506q0 152 63 273t179.5 191t267.5 70q226 0 367 -149t141 -379q0 -232 -140.5 -382t-367.5 -150q-228 0 -369 147.5t-141 378.5zM211 1284q28 80 89 115t157 35q62 0 158 -36t147 -36q55 0 90.5 16t56.5 58l101 -37q-28 -80 -89 -115t-157 -35q-60 0 -158 36 t-147 36q-55 0 -91 -16t-57 -58zM219 512q0 -192 107.5 -309t285.5 -117q176 0 284 119.5t108 310.5q0 189 -107.5 303.5t-284.5 114.5q-178 0 -285.5 -116t-107.5 -306z" />
<glyph unicode="&#xf6;" horiz-adv-x="1222" d="M102 506q0 152 63 273t179.5 191t267.5 70q226 0 367 -149t141 -379q0 -232 -140.5 -382t-367.5 -150q-228 0 -369 147.5t-141 378.5zM219 512q0 -192 107.5 -309t285.5 -117q176 0 284 119.5t108 310.5q0 189 -107.5 303.5t-284.5 114.5q-178 0 -285.5 -116t-107.5 -306 zM293 1356q0 38 26.5 65t63.5 27q38 0 65 -27t27 -65q0 -37 -27 -63.5t-65 -26.5q-37 0 -63.5 26.5t-26.5 63.5zM745 1356q0 38 27 65t64 27q38 0 65 -27t27 -65q0 -37 -27 -63.5t-65 -26.5q-37 0 -64 26.5t-27 63.5z" />
<glyph unicode="&#xf7;" horiz-adv-x="966" d="M102 549v104h762v-104h-762zM387 293q0 40 28 68t66 28q40 0 68.5 -28t28.5 -68q0 -38 -28.5 -66t-68.5 -28q-38 0 -66 28t-28 66zM387 905q0 40 28 68t66 28q40 0 68.5 -28t28.5 -68q0 -38 -28.5 -66t-68.5 -28q-38 0 -66 28t-28 66z" />
<glyph unicode="&#xf8;" horiz-adv-x="1222" d="M102 506q0 152 63 273t179.5 191t267.5 70q130 0 240 -55l47 78l100 -62l-55 -77q84 -71 130 -178t46 -234q0 -232 -140.5 -382t-367.5 -150q-133 0 -243 55l-45 -78l-101 61l53 76q-84 71 -129 177.5t-45 234.5zM219 512q0 -213 113 -326l461 713q-78 35 -181 35 q-178 0 -285.5 -116t-107.5 -306zM430 121q71 -35 182 -35q176 0 284 119.5t108 310.5q0 208 -113 318z" />
<glyph unicode="&#xf9;" horiz-adv-x="1097" d="M113 999l98 33q59 -92 59 -287q0 -57 -8 -183.5t-8 -229.5q0 -127 52.5 -186.5t168.5 -59.5q102 0 175.5 51.5t152.5 159.5v723h112v-725q0 -158 80 -244l-69 -67q-89 64 -113 194q-129 -198 -338 -198q-174 0 -254 83.5t-80 245.5q0 105 8.5 247.5t8.5 201.5 q0 138 -45 241zM205 1386l74 101l323 -256l-45 -70z" />
<glyph unicode="&#xfa;" horiz-adv-x="1097" d="M113 999l98 33q59 -92 59 -287q0 -57 -8 -183.5t-8 -229.5q0 -127 52.5 -186.5t168.5 -59.5q102 0 175.5 51.5t152.5 159.5v723h112v-725q0 -158 80 -244l-69 -67q-89 64 -113 194q-129 -198 -338 -198q-174 0 -254 83.5t-80 245.5q0 105 8.5 247.5t8.5 201.5 q0 138 -45 241zM485 1231l324 256l74 -101l-353 -225z" />
<glyph unicode="&#xfb;" horiz-adv-x="1097" d="M113 999l98 33q59 -92 59 -287q0 -57 -8 -183.5t-8 -229.5q0 -127 52.5 -186.5t168.5 -59.5q102 0 175.5 51.5t152.5 159.5v723h112v-725q0 -158 80 -244l-69 -67q-89 64 -113 194q-129 -198 -338 -198q-174 0 -254 83.5t-80 245.5q0 105 8.5 247.5t8.5 201.5 q0 138 -45 241zM221 1255l223 252q56 66 99 66q42 0 98 -66l223 -250l-76 -67l-245 272l-246 -274z" />
<glyph unicode="&#xfc;" horiz-adv-x="1097" d="M113 999l98 33q59 -92 59 -287q0 -57 -8 -183.5t-8 -229.5q0 -127 52.5 -186.5t168.5 -59.5q102 0 175.5 51.5t152.5 159.5v723h112v-725q0 -158 80 -244l-69 -67q-89 64 -113 194q-129 -198 -338 -198q-174 0 -254 83.5t-80 245.5q0 105 8.5 247.5t8.5 201.5 q0 138 -45 241zM223 1356q0 38 26.5 65t63.5 27q38 0 65.5 -27t27.5 -65q0 -37 -27.5 -63.5t-65.5 -26.5q-37 0 -63.5 26.5t-26.5 63.5zM676 1356q0 38 26.5 65t63.5 27q38 0 65 -27t27 -65q0 -37 -27 -63.5t-65 -26.5q-37 0 -63.5 26.5t-26.5 63.5z" />
<glyph unicode="&#xfd;" horiz-adv-x="1056" d="M72 999l110 31l215 -751q55 -188 195 -207l307 958l107 -35l-416 -1302q-75 -228 -352 -228l-15 101q109 0 171 41.5t89 122.5l78 243q-201 22 -274 275zM504 1231l323 256l74 -101l-352 -225z" />
<glyph unicode="&#xfe;" horiz-adv-x="1091" d="M174 0v1487h113v-592q45 68 120 106.5t166 38.5q193 0 304.5 -119t111.5 -300q0 -185 -125.5 -304.5t-328.5 -119.5q-130 0 -248 16v-213h-113zM287 324q157 -21 245 -21q153 0 246.5 86.5t93.5 226.5q0 63 -19 119.5t-55.5 101t-94.5 71t-130 26.5q-64 0 -122.5 -25.5 t-104.5 -82t-59 -134.5v-368z" />
<glyph unicode="&#xff;" horiz-adv-x="1056" d="M72 999l110 31l215 -751q55 -188 195 -207l307 958l107 -35l-416 -1302q-75 -228 -352 -228l-15 101q109 0 171 41.5t89 122.5l78 243q-201 22 -274 275zM242 1356q0 38 26.5 65t63.5 27q38 0 65 -27t27 -65q0 -37 -27 -63.5t-65 -26.5q-37 0 -63.5 26.5t-26.5 63.5z M694 1356q0 38 26.5 65t63.5 27q38 0 65.5 -27t27.5 -65q0 -37 -27.5 -63.5t-65.5 -26.5q-37 0 -63.5 26.5t-26.5 63.5z" />
<glyph unicode="&#x152;" horiz-adv-x="2084" d="M123 700q0 204 85 368t243.5 258.5t363.5 94.5q92 0 462.5 -10t428.5 -10q156 0 244 82l67 -70q-91 -125 -311 -125q-90 0 -516 12v-501h649v-117h-649v-565h833v-117h-800q-246 -20 -408 -20q-205 0 -363.5 95t-243.5 258.5t-85 366.5zM248 700q0 -270 156.5 -439 t410.5 -169q140 0 250 14v1199q-218 4 -252 4q-253 0 -409 -169t-156 -440z" />
<glyph unicode="&#x153;" horiz-adv-x="1933" d="M102 506q0 152 63 273t179.5 191t267.5 70q158 0 272 -76t171 -208q49 129 148 206.5t233 77.5q157 0 263.5 -85t106.5 -226q0 -70 -25.5 -125.5t-67.5 -91.5t-101 -59.5t-122 -33t-134 -9.5h-240q19 -161 102 -242.5t240 -81.5q138 0 320 98l53 -86q-172 -118 -373 -118 q-317 0 -411 268q-58 -126 -170.5 -197t-264.5 -71q-228 0 -369 147.5t-141 378.5zM219 512q0 -192 107.5 -309t285.5 -117q176 0 284 119.5t108 310.5q0 189 -107.5 303.5t-284.5 114.5q-178 0 -285.5 -116t-107.5 -306zM1110 516h246q334 0 334 213q0 95 -70.5 153 t-183.5 58q-96 0 -171.5 -62.5t-114.5 -158.5t-40 -203z" />
<glyph unicode="&#x178;" horiz-adv-x="1089" d="M72 1393l121 30l198 -592q62 -195 246 -198l274 788l117 -35l-295 -849q-63 -13 -104 -13v-524h-125v541q-86 29 -145.5 100t-88.5 160zM248 1665q0 38 26.5 65t63.5 27q38 0 65 -27t27 -65q0 -37 -27 -63.5t-65 -26.5q-37 0 -63.5 26.5t-26.5 63.5zM700 1665q0 38 27 65 t64 27q38 0 65 -27t27 -65q0 -37 -27 -63.5t-65 -26.5q-37 0 -64 26.5t-27 63.5z" />
<glyph unicode="&#x2c6;" d="M211 1255l223 252q56 66 98 66q43 0 99 -66l223 -250l-76 -67l-246 272l-245 -274z" />
<glyph unicode="&#x2dc;" d="M133 1284q28 80 89 115t157 35q62 0 158 -36t147 -36q55 0 90.5 16t56.5 58l101 -37q-28 -80 -89 -115t-157 -35q-60 0 -158 36t-147 36q-55 0 -91 -16t-57 -58z" />
<glyph unicode="&#x2000;" horiz-adv-x="911" />
<glyph unicode="&#x2001;" horiz-adv-x="1823" />
<glyph unicode="&#x2002;" horiz-adv-x="911" />
<glyph unicode="&#x2003;" horiz-adv-x="1823" />
<glyph unicode="&#x2004;" horiz-adv-x="607" />
<glyph unicode="&#x2005;" horiz-adv-x="455" />
<glyph unicode="&#x2006;" horiz-adv-x="303" />
<glyph unicode="&#x2007;" horiz-adv-x="303" />
<glyph unicode="&#x2008;" horiz-adv-x="227" />
<glyph unicode="&#x2009;" horiz-adv-x="364" />
<glyph unicode="&#x200a;" horiz-adv-x="101" />
<glyph unicode="&#x2010;" horiz-adv-x="1017" d="M205 567v117h608v-117h-608z" />
<glyph unicode="&#x2011;" horiz-adv-x="1017" d="M205 567v117h608v-117h-608z" />
<glyph unicode="&#x2012;" horiz-adv-x="1017" d="M205 567v117h608v-117h-608z" />
<glyph unicode="&#x2013;" horiz-adv-x="874" d="M0 567v117h874v-117h-874z" />
<glyph unicode="&#x2014;" horiz-adv-x="1202" d="M0 567v117h1202v-117h-1202z" />
<glyph unicode="&#x2018;" horiz-adv-x="509" d="M174 1010v123q0 92 35.5 175t107.5 136l70 -68q-82 -88 -82 -243v-123q0 -28 -19 -48t-46 -20q-29 0 -47.5 20t-18.5 48z" />
<glyph unicode="&#x2019;" horiz-adv-x="509" d="M123 989q82 88 82 244v123q0 28 18.5 47.5t46.5 19.5q29 0 47.5 -19.5t18.5 -47.5v-123q0 -92 -35.5 -175t-107.5 -136z" />
<glyph unicode="&#x201a;" horiz-adv-x="509" d="M123 -260q82 88 82 244v122q0 28 19 48t46 20q29 0 47.5 -20t18.5 -48v-122q0 -92 -35.5 -176t-107.5 -136z" />
<glyph unicode="&#x201c;" horiz-adv-x="765" d="M174 1010v123q0 92 35.5 175t107.5 136l70 -68q-82 -88 -82 -243v-123q0 -28 -19 -48t-46 -20q-29 0 -47.5 20t-18.5 48zM430 1010v123q0 92 35.5 175t107.5 136l70 -68q-82 -88 -82 -243v-123q0 -28 -19 -48t-46 -20q-29 0 -47.5 20t-18.5 48z" />
<glyph unicode="&#x201d;" horiz-adv-x="765" d="M123 989q82 88 82 244v123q0 28 18.5 47.5t46.5 19.5q29 0 47.5 -19.5t18.5 -47.5v-123q0 -92 -35.5 -175t-107.5 -136zM379 989q82 88 82 244v123q0 28 18.5 47.5t46.5 19.5q29 0 47.5 -19.5t18.5 -47.5v-123q0 -92 -35.5 -175t-107.5 -136z" />
<glyph unicode="&#x201e;" horiz-adv-x="765" d="M123 -260q82 88 82 244v122q0 28 19 48t46 20q29 0 47.5 -20t18.5 -48v-122q0 -92 -35.5 -176t-107.5 -136zM379 -260q82 88 82 244v122q0 28 19 48t46 20q29 0 47.5 -20t18.5 -48v-122q0 -92 -35.5 -176t-107.5 -136z" />
<glyph unicode="&#x2022;" horiz-adv-x="755" d="M205 643q0 70 51.5 122t120.5 52q73 0 123.5 -51.5t50.5 -122.5q0 -72 -50.5 -122t-123.5 -50q-70 0 -121 50.5t-51 121.5z" />
<glyph unicode="&#x202f;" horiz-adv-x="364" />
<glyph unicode="&#x2039;" horiz-adv-x="829" d="M123 514q0 43 65 98l422 377l76 -84l-442 -391l442 -391l-76 -84l-422 377q-65 55 -65 98z" />
<glyph unicode="&#x203a;" horiz-adv-x="829" d="M143 123l443 391l-443 391l76 84l422 -377q66 -56 66 -98t-66 -98l-422 -377z" />
<glyph unicode="&#x205f;" horiz-adv-x="455" />
<glyph unicode="&#x20ac;" horiz-adv-x="1091" d="M41 485l22 107h134q-2 27 -2 82v37h-154l22 106h138q58 543 542 543q88 0 226 -12v-113q-168 12 -226 12q-199 0 -297.5 -108.5t-119.5 -321.5h505l-18 -106h-494v-37q0 -42 3 -82h473l-17 -107h-446q62 -393 411 -393q87 0 154.5 23.5t140.5 70.5l54 -92 q-70 -55 -151.5 -84.5t-197.5 -29.5q-468 0 -536 505h-166z" />
<glyph unicode="&#xe000;" horiz-adv-x="1024" d="M0 0v1024h1024v-1024h-1024z" />
</font>
</defs>
</svg>
